<?xml version="1.0" encoding="utf-8" standalone="no"?>
<!DOCTYPE svg PUBLIC "-//W3C//DTD SVG 1.1//EN"
  "http://www.w3.org/Graphics/SVG/1.1/DTD/svg11.dtd">
<!-- Created with matplotlib (http://matplotlib.org/) -->
<svg height="252pt" version="1.1" viewBox="0 0 468 252" width="468pt" xmlns="http://www.w3.org/2000/svg" xmlns:xlink="http://www.w3.org/1999/xlink">
 <defs>
  <style type="text/css">
*{stroke-linecap:square;stroke-linejoin:round;}
  </style>
 </defs>
 <g id="figure_1">
  <g id="patch_1">
   <path d="
M0 252
L468 252
L468 0
L0 0
z
" style="fill:#ffffff;"/>
  </g>
  <g id="axes_1">
   <g id="patch_2">
    <path d="
M58.5 220.5
L421.2 220.5
L421.2 25.2
L58.5 25.2
z
" style="fill:#ffffff;"/>
   </g>
   <g id="line2d_1">
    <path clip-path="url(#p2045afec6a)" d="
M58.5 28.8066
L63.6814 32.4492
L68.8629 34.6089
L74.0443 36.1549
L79.2257 37.345
L84.4071 38.2814
L89.5886 39.0123
L94.77 39.5675
L99.9514 39.9739
L105.133 40.2596
L110.314 40.4532
L115.496 40.5801
L120.677 40.6611
L125.859 40.7116
L131.04 40.7426
L136.221 40.7613
L141.403 40.7724
L146.584 40.7789
L151.766 40.7827
L156.947 40.7848
L162.129 40.786
L167.31 40.7867
L172.491 40.7871
L177.673 40.7873
L182.854 40.7874
L188.036 40.7875
L193.217 40.7875
L198.399 40.7875
L203.58 40.7875
L208.761 40.7875
L213.943 40.7875
L219.124 40.7875
L224.306 40.7875
L229.487 40.7876
L234.669 40.7876
L239.85 40.7876
L245.031 40.7878
L250.213 40.788
L255.394 40.7886
L260.576 40.7901
L265.757 40.7936
L270.939 40.8023
L276.12 40.8242
L281.301 40.8802
L286.483 41.0232
L291.664 41.3768
L296.846 42.1654
L302.027 43.6166
L307.209 45.7283
L312.39 48.2826
L317.571 51.0764
L322.753 54.0045
L327.934 57.0253
L333.116 60.1244
L338.297 63.298
L343.479 66.5454
L348.66 69.8673
L353.841 73.265
L359.023 76.7397
L364.204 80.2928
L369.386 83.9258
L374.567 87.6403
L379.749 91.4379
L384.93 95.3203
L390.111 99.2894
L395.293 103.347" style="fill:none;stroke:#0000ff;"/>
   </g>
   <g id="line2d_2">
    <path clip-path="url(#p2045afec6a)" d="
M58.5 28.8066
L63.6814 32.5307
L68.8629 34.8368
L74.0443 36.6089
L79.2257 38.1244
L84.4071 39.5059
L89.5886 40.818
L94.77 42.0979
L99.9514 43.3681
L105.133 44.6428
L110.314 45.9306
L115.496 47.2372
L120.677 48.5662
L125.859 49.92
L131.04 51.3006
L136.221 52.7094
L141.403 54.1478
L146.584 55.6171
L151.766 57.1186
L156.947 58.6536
L162.129 60.2234
L167.31 61.8292
L172.491 63.4725
L177.673 65.1544
L182.854 66.8762
L188.036 68.6392
L193.217 70.4444
L198.399 72.293
L203.58 74.1862
L208.761 76.125
L213.943 78.1105
L219.124 80.1435
L224.306 82.2252
L229.487 84.3565
L234.669 86.5383
L239.85 88.7716
L245.031 91.0572
L250.213 93.3961
L255.394 95.7892
L260.576 98.2373
L265.757 100.741
L270.939 103.303
L276.12 105.921
L281.301 108.599
L286.483 111.336
L291.664 114.134
L296.846 116.994
L302.027 119.916
L307.209 122.902
L312.39 125.953
L317.571 129.069
L322.753 132.253
L327.934 135.504
L333.116 138.825
L338.297 142.217
L343.479 145.68
L348.66 149.217
L353.841 152.829
L359.023 156.518
L364.204 160.291
L369.386 164.164
L374.567 168.188
L379.749 172.544
L384.93 177.929
L390.111 212.094" style="fill:none;stroke:#008000;"/>
   </g>
   <g id="line2d_3">
    <path clip-path="url(#p2045afec6a)" d="
M58.5 28.8066
L63.6814 32.5307
L68.8629 34.8368
L74.0443 36.6089
L79.2257 38.1244
L84.4071 39.5059
L89.5886 40.818
L94.77 42.0979
L99.9514 43.3681
L105.133 44.6428
L110.314 45.9306
L115.496 47.2372
L120.677 48.5662
L125.859 49.92
L131.04 51.3006
L136.221 52.7094
L141.403 54.1478
L146.584 55.6171
L151.766 57.1186
L156.947 58.6536
L162.129 60.2234
L167.31 61.8292
L172.491 63.4725
L177.673 65.1544
L182.854 66.8762
L188.036 68.6392
L193.217 70.4444
L198.399 72.293
L203.58 74.1862
L208.761 76.125
L213.943 78.1105
L219.124 80.1435
L224.306 82.2252
L229.487 84.3565
L234.669 86.5383
L239.85 88.7716
L245.031 91.0572
L250.213 93.3961
L255.394 95.7892
L260.576 98.2373
L265.757 100.741
L270.939 103.303
L276.12 105.921
L281.301 108.599
L286.483 111.336
L291.664 114.134
L296.846 116.994
L302.027 119.916
L307.209 122.902
L312.39 125.953
L317.571 129.069
L322.753 132.253
L327.934 135.504
L333.116 138.825
L338.297 142.217
L343.479 145.68
L348.66 149.217
L353.841 152.828
L359.023 156.515
L364.204 160.281
L369.386 164.125
L374.567 168.05
L379.749 172.058
L384.93 176.151
L390.111 180.331
L395.293 184.595" style="fill:none;stroke:#ff0000;"/>
   </g>
   <g id="line2d_4">
    <path clip-path="url(#p2045afec6a)" d="
M58.5 107.269
L63.6814 107.268
L68.8629 106.438
L74.0443 106.438
L79.2257 106.436
L84.4071 106.436
L89.5886 106.418
L94.77 106.418
L99.9514 106.417
L105.133 106.417
L110.314 106.415
L115.496 106.415
L120.677 106.414
L125.859 106.414
L131.04 106.414
L136.221 106.414
L141.403 106.413
L146.584 106.413
L151.766 106.413
L156.947 106.413
L162.129 106.413
L167.31 106.413
L172.491 106.413
L177.673 106.413
L182.854 106.413
L188.036 106.413
L193.217 106.413
L198.399 106.413
L203.58 106.413
L208.761 106.413
L213.943 106.413
L219.124 106.413
L224.306 106.413
L229.487 106.413
L234.669 106.413
L239.85 106.412
L245.031 106.41
L250.213 106.407
L255.394 106.397
L260.576 106.372
L265.757 106.305
L270.939 106.134
L276.12 105.71
L281.301 104.787
L286.483 103.163
L291.664 100.91
L296.846 98.269
L302.027 95.4246
L307.209 92.4651
L312.39 89.4228
L317.571 86.309
L322.753 83.1263
L327.934 79.8749
L333.116 76.5541
L338.297 73.1626
L343.479 69.6992
L348.66 66.1624
L353.841 62.5505
L359.023 58.861
L364.204 55.0881
L369.386 51.2159
L374.567 47.1919
L379.749 42.8356
L384.93 37.4505" style="fill:none;stroke:#00bfbf;"/>
   </g>
   <g id="matplotlib.axis_1">
    <g id="xtick_1">
     <g id="line2d_5">
      <defs>
       <path d="
M0 0
L0 -4" id="mcb557df647" style="stroke:#000000;stroke-linecap:butt;stroke-width:0.5;"/>
      </defs>
      <g>
       <use style="stroke:#000000;stroke-linecap:butt;stroke-width:0.5;" x="58.5" xlink:href="#mcb557df647" y="220.5"/>
      </g>
     </g>
     <g id="line2d_6">
      <defs>
       <path d="
M0 0
L0 4" id="mdad270ee8e" style="stroke:#000000;stroke-linecap:butt;stroke-width:0.5;"/>
      </defs>
      <g>
       <use style="stroke:#000000;stroke-linecap:butt;stroke-width:0.5;" x="58.5" xlink:href="#mdad270ee8e" y="25.2"/>
      </g>
     </g>
     <g id="text_1">
      <!-- $0$ -->
      <defs>
       <path d="
M42 31.6406
C42 37.75 41.9062 48.125 37.7031 56.1094
C34 63.1094 28.0938 65.5938 22.9062 65.5938
C18.0938 65.5938 12 63.4062 8.20312 56.2031
C4.20312 48.7188 3.79688 39.4375 3.79688 31.6406
C3.79688 25.9531 3.90625 17.2812 7 9.67188
C11.2969 -0.609375 19 -2 22.9062 -2
C27.5 -2 34.5 -0.109375 38.5938 9.375
C41.5938 16.2812 42 24.3594 42 31.6406
M22.9062 -0.40625
C16.5 -0.40625 12.7031 5.07812 11.2969 12.6875
C10.2031 18.5625 10.2031 27.1562 10.2031 32.75
C10.2031 40.4375 10.2031 46.8281 11.5 52.9219
C13.4062 61.3906 19 64 22.9062 64
C27 64 32.2969 61.2969 34.2031 53.125
C35.5 47.4375 35.5938 40.7344 35.5938 32.75
C35.5938 26.25 35.5938 18.2656 34.4062 12.375
C32.2969 1.48438 26.4062 -0.40625 22.9062 -0.40625" id="CMR17-48"/>
      </defs>
      <g transform="translate(56.0093323742 230.920366375)scale(0.1 -0.1)">
       <use transform="scale(0.996264009963)" xlink:href="#CMR17-48"/>
      </g>
     </g>
    </g>
    <g id="xtick_2">
     <g id="line2d_7">
      <g>
       <use style="stroke:#000000;stroke-linecap:butt;stroke-width:0.5;" x="110.314285714" xlink:href="#mcb557df647" y="220.5"/>
      </g>
     </g>
     <g id="line2d_8">
      <g>
       <use style="stroke:#000000;stroke-linecap:butt;stroke-width:0.5;" x="110.314285714" xlink:href="#mdad270ee8e" y="25.2"/>
      </g>
     </g>
     <g id="text_2">
      <!-- $10$ -->
      <defs>
       <path d="
M26.5938 63.3125
C26.5938 65.4062 26.5 65.5 25.0938 65.5
C21.2031 61.1875 15.2969 59.7969 9.70312 59.7969
C9.40625 59.7969 8.90625 59.7969 8.79688 59.5
C8.70312 59.2969 8.70312 59.0938 8.70312 57
C11.7969 57 17 57.5938 21 59.9844
L21 7.20312
C21 3.6875 20.7969 2.5 12.2031 2.5
L9.20312 2.5
L9.20312 0
C14 0 19 0 23.7969 0
C28.5938 0 33.5938 0 38.4062 0
L38.4062 2.5
L35.4062 2.5
C26.7969 2.5 26.5938 3.59375 26.5938 7.15625
z
" id="CMR17-49"/>
      </defs>
      <g transform="translate(105.332950463 230.920366375)scale(0.1 -0.1)">
       <use transform="scale(0.996264009963)" xlink:href="#CMR17-49"/>
       <use transform="translate(45.6904771171 0.0)scale(0.996264009963)" xlink:href="#CMR17-48"/>
      </g>
     </g>
    </g>
    <g id="xtick_3">
     <g id="line2d_9">
      <g>
       <use style="stroke:#000000;stroke-linecap:butt;stroke-width:0.5;" x="162.128571429" xlink:href="#mcb557df647" y="220.5"/>
      </g>
     </g>
     <g id="line2d_10">
      <g>
       <use style="stroke:#000000;stroke-linecap:butt;stroke-width:0.5;" x="162.128571429" xlink:href="#mdad270ee8e" y="25.2"/>
      </g>
     </g>
     <g id="text_3">
      <!-- $20$ -->
      <defs>
       <path d="
M41.7031 15.4531
L39.9062 15.4531
C38.9062 8.375 38.0938 7.17188 37.7031 6.5625
C37.2031 5.76562 30 5.76562 28.5938 5.76562
L9.40625 5.76562
C13 9.67188 20 16.75 28.5 24.9531
C34.5938 30.7344 41.7031 37.5312 41.7031 47.4219
C41.7031 59.2188 32.2969 66 21.7969 66
C10.7969 66 4.09375 56.3125 4.09375 47.3438
C4.09375 43.4375 7 42.9375 8.20312 42.9375
C9.20312 42.9375 12.2031 43.5469 12.2031 47.0312
C12.2031 50.1094 9.59375 51 8.20312 51
C7.59375 51 7 50.9062 6.59375 50.7031
C8.5 59.2188 14.2969 63.4062 20.4062 63.4062
C29.0938 63.4062 34.7969 56.5156 34.7969 47.4219
C34.7969 38.7344 29.7031 31.25 24 24.75
L4.09375 2.28125
L4.09375 0
L39.2969 0
z
" id="CMR17-50"/>
      </defs>
      <g transform="translate(157.147236177 230.920366375)scale(0.1 -0.1)">
       <use transform="scale(0.996264009963)" xlink:href="#CMR17-50"/>
       <use transform="translate(45.6904771171 0.0)scale(0.996264009963)" xlink:href="#CMR17-48"/>
      </g>
     </g>
    </g>
    <g id="xtick_4">
     <g id="line2d_11">
      <g>
       <use style="stroke:#000000;stroke-linecap:butt;stroke-width:0.5;" x="213.942857143" xlink:href="#mcb557df647" y="220.5"/>
      </g>
     </g>
     <g id="line2d_12">
      <g>
       <use style="stroke:#000000;stroke-linecap:butt;stroke-width:0.5;" x="213.942857143" xlink:href="#mdad270ee8e" y="25.2"/>
      </g>
     </g>
     <g id="text_4">
      <!-- $30$ -->
      <defs>
       <path d="
M22.0938 33.7031
C31 33.7031 34.9062 25.9688 34.9062 17.0312
C34.9062 5 28.5 0.390625 22.7031 0.390625
C17.4062 0.390625 8.79688 3.03125 6.09375 10.8281
C6.59375 10.625 7.09375 10.625 7.59375 10.625
C10 10.625 11.7969 12.2188 11.7969 14.8125
C11.7969 17.7031 9.59375 19 7.59375 19
C5.90625 19 3.29688 18.2031 3.29688 14.4688
C3.29688 5.23438 12.2969 -2 22.9062 -2
C34 -2 42.5 6.71875 42.5 16.9531
C42.5 26.6719 34.5 33.6875 25 34.7969
C32.5938 36.375 39.9062 43.0625 39.9062 52.0156
C39.9062 59.6875 32 65.2969 23 65.2969
C13.9062 65.2969 5.90625 59.8281 5.90625 52.0156
C5.90625 48.5938 8.5 48 9.79688 48
C11.9062 48 13.7031 49.2969 13.7031 51.8906
C13.7031 54.4688 11.9062 55.7656 9.79688 55.7656
C9.40625 55.7656 8.90625 55.7656 8.5 55.5625
C11.4062 61.8594 19.2969 63 22.7969 63
C26.2969 63 32.9062 61.3281 32.9062 51.875
C32.9062 49.1094 32.5 44.1875 29.0938 39.8438
C26.0938 36 22.7031 36 19.4062 35.5938
C18.9062 35.5938 16.5938 35.5938 16.2031 35.5938
C15.5 35.4844 15.0938 35.3906 15.0938 34.5938
C15.0938 33.8125 15.2031 33.7031 17.2031 33.7031
z
" id="CMR17-51"/>
      </defs>
      <g transform="translate(208.961521891 230.920366375)scale(0.1 -0.1)">
       <use transform="scale(0.996264009963)" xlink:href="#CMR17-51"/>
       <use transform="translate(45.6904771171 0.0)scale(0.996264009963)" xlink:href="#CMR17-48"/>
      </g>
     </g>
    </g>
    <g id="xtick_5">
     <g id="line2d_13">
      <g>
       <use style="stroke:#000000;stroke-linecap:butt;stroke-width:0.5;" x="265.757142857" xlink:href="#mcb557df647" y="220.5"/>
      </g>
     </g>
     <g id="line2d_14">
      <g>
       <use style="stroke:#000000;stroke-linecap:butt;stroke-width:0.5;" x="265.757142857" xlink:href="#mdad270ee8e" y="25.2"/>
      </g>
     </g>
     <g id="text_5">
      <!-- $40$ -->
      <defs>
       <path d="
M33.5938 64.3281
C33.5938 66.4062 33.5 66.5 31.7031 66.5
L2 19.5938
L2 17
L27.7969 17
L27.7969 7.14062
C27.7969 3.5 27.5938 2.5 20.5938 2.5
L18.7031 2.5
L18.7031 0
C21.9062 0 27.2969 0 30.7031 0
C34.0938 0 39.5 0 42.7031 0
L42.7031 2.5
L40.7969 2.5
C33.7969 2.5 33.5938 3.5 33.5938 7.14062
L33.5938 17
L43.7969 17
L43.7969 19.5938
L33.5938 19.5938
z

M28.0938 57.7656
L28.0938 19.5938
L4 19.5938
z
" id="CMR17-52"/>
      </defs>
      <g transform="translate(260.775807606 230.920366375)scale(0.1 -0.1)">
       <use transform="scale(0.996264009963)" xlink:href="#CMR17-52"/>
       <use transform="translate(45.6904771171 0.0)scale(0.996264009963)" xlink:href="#CMR17-48"/>
      </g>
     </g>
    </g>
    <g id="xtick_6">
     <g id="line2d_15">
      <g>
       <use style="stroke:#000000;stroke-linecap:butt;stroke-width:0.5;" x="317.571428571" xlink:href="#mcb557df647" y="220.5"/>
      </g>
     </g>
     <g id="line2d_16">
      <g>
       <use style="stroke:#000000;stroke-linecap:butt;stroke-width:0.5;" x="317.571428571" xlink:href="#mdad270ee8e" y="25.2"/>
      </g>
     </g>
     <g id="text_6">
      <!-- $50$ -->
      <defs>
       <path d="
M11.4062 57.6875
C12.4062 57.2812 16.5 56 20.7031 56
C30 56 35.0938 61.0156 38 63.9219
C38 64.7344 38 65.25 37.4062 65.25
C37.2969 65.25 37.0938 65.25 36.2969 64.8281
C32.7969 63.3125 28.7031 62.0781 23.7031 62.0781
C20.7031 62.0781 16.2031 62.5 11.2969 64.7344
C10.2031 65.25 10 65.25 9.90625 65.25
C9.40625 65.25 9.29688 65.1406 9.29688 63.1562
L9.29688 34.2812
C9.29688 32.5 9.29688 32 10.2969 32
C10.7969 32 11 32.2031 11.5 32.9062
C14.7031 37.4844 19.0938 39.4062 24.0938 39.4062
C27.5938 39.4062 35.0938 37.2188 35.0938 20.1406
C35.0938 16.9531 35.0938 11.1719 32.0938 6.57812
C29.5938 2.48438 25.7031 0.390625 21.4062 0.390625
C14.7969 0.390625 8.09375 5 6.29688 12.7188
C6.70312 12.6094 7.5 12.4219 7.90625 12.4219
C9.20312 12.4219 11.7031 13.125 11.7031 16.2188
C11.7031 18.9062 9.79688 20 7.90625 20
C5.59375 20 4.09375 18.5938 4.09375 15.7969
C4.09375 7.09375 11 -2 21.5938 -2
C31.9062 -2 41.7031 6.875 41.7031 19.75
C41.7031 31.7188 33.9062 41 24.2031 41
C19.0938 41 14.7969 39.0938 11.4062 35.4531
z
" id="CMR17-53"/>
      </defs>
      <g transform="translate(312.59009332 230.920366375)scale(0.1 -0.1)">
       <use transform="scale(0.996264009963)" xlink:href="#CMR17-53"/>
       <use transform="translate(45.6904771171 0.0)scale(0.996264009963)" xlink:href="#CMR17-48"/>
      </g>
     </g>
    </g>
    <g id="xtick_7">
     <g id="line2d_17">
      <g>
       <use style="stroke:#000000;stroke-linecap:butt;stroke-width:0.5;" x="369.385714286" xlink:href="#mcb557df647" y="220.5"/>
      </g>
     </g>
     <g id="line2d_18">
      <g>
       <use style="stroke:#000000;stroke-linecap:butt;stroke-width:0.5;" x="369.385714286" xlink:href="#mdad270ee8e" y="25.2"/>
      </g>
     </g>
     <g id="text_7">
      <!-- $60$ -->
      <defs>
       <path d="
M10.5938 34
C10.5938 57.6562 21.7969 63 28.2969 63
C30.4062 63 35.5 62.6406 37.5 59
C35.9062 59 32.9062 59 32.9062 55.5156
C32.9062 52.8281 35.0938 51.9219 36.5 51.9219
C37.4062 51.9219 40.0938 52.3125 40.0938 55.625
C40.0938 61.7812 35.0938 65.2969 28.2031 65.2969
C16.2969 65.2969 3.79688 52.9688 3.79688 31
C3.79688 3.95312 15.0938 -2 23.0938 -2
C32.7969 -2 42 6.67188 42 20.0469
C42 32.5156 33.9062 41.5938 23.7031 41.5938
C17.5938 41.5938 13.0938 37.6094 10.5938 30.625
z

M23.0938 0.390625
C10.7969 0.390625 10.7969 18.75 10.7969 22.4375
C10.7969 29.625 14.2031 40 23.5 40
C25.2031 40 30.0938 40 33.4062 33.125
C35.2031 29.2188 35.2031 25.1406 35.2031 20.1406
C35.2031 14.75 35.2031 10.7812 33.0938 6.78125
C30.9062 2.67188 27.7031 0.390625 23.0938 0.390625" id="CMR17-54"/>
      </defs>
      <g transform="translate(364.404379034 230.920366375)scale(0.1 -0.1)">
       <use transform="scale(0.996264009963)" xlink:href="#CMR17-54"/>
       <use transform="translate(45.6904771171 0.0)scale(0.996264009963)" xlink:href="#CMR17-48"/>
      </g>
     </g>
    </g>
    <g id="xtick_8">
     <g id="line2d_19">
      <g>
       <use style="stroke:#000000;stroke-linecap:butt;stroke-width:0.5;" x="421.2" xlink:href="#mcb557df647" y="220.5"/>
      </g>
     </g>
     <g id="line2d_20">
      <g>
       <use style="stroke:#000000;stroke-linecap:butt;stroke-width:0.5;" x="421.2" xlink:href="#mdad270ee8e" y="25.2"/>
      </g>
     </g>
     <g id="text_8">
      <!-- $70$ -->
      <defs>
       <path d="
M45.0938 61.5781
L45.0938 63.7656
L21.5938 63.7656
C9.90625 63.7656 9.70312 65.0781 9.29688 67
L7.5 67
L4.59375 48.3438
L6.40625 48.3438
C6.70312 50.2344 7.40625 55.3125 8.59375 57.2031
C9.20312 58 16.5938 58 18.2969 58
L40.2969 58
L29.2031 41.5781
C21.7969 30.5312 16.7031 15.6094 16.7031 2.57812
C16.7031 1.39062 16.7031 -2 20.2969 -2
C23.9062 -2 23.9062 1.39062 23.9062 2.67188
L23.9062 7.26562
C23.9062 23.5625 26.7031 34.3125 31.2969 41.1875
z
" id="CMR17-55"/>
      </defs>
      <g transform="translate(416.218664748 230.920366375)scale(0.1 -0.1)">
       <use transform="scale(0.996264009963)" xlink:href="#CMR17-55"/>
       <use transform="translate(45.6904771171 0.0)scale(0.996264009963)" xlink:href="#CMR17-48"/>
      </g>
     </g>
    </g>
    <g id="text_9">
     <!-- Iteration $m$ -->
     <defs>
      <path d="
M53.5 5.20312
C52.5938 5 52.2031 5 51.7031 5
C48.7969 5 47.2031 6.48438 47.2031 9.07812
L47.2031 39.7656
C47.2031 49.0156 40.4062 54 27.5 54
C19.9062 54 13.5938 51.8125 10.0938 47.9062
C7.70312 45.2031 6.70312 42.2188 6.5 37.0312
L14.9062 37.0312
C15.5938 43.3906 19.4062 46.2812 27.2031 46.2812
C34.7031 46.2812 38.9062 43.4844 38.9062 38.5156
L38.9062 36.3281
C38.9062 32.8281 36.7969 31.3438 30.2031 30.5469
C18.4062 29.0625 16.5938 28.6562 13.4062 27.3594
C7.29688 24.875 4.20312 20.1875 4.20312 13.4219
C4.20312 3.96875 10.7969 -2 21.4062 -2
C28 -2 33.2969 0.296875 39.2031 5.70312
C39.7969 0.390625 42.4062 -2 47.7969 -2
C49.5 -2 50.7969 -1.8125 53.5 -1.09375
z

M38.9062 16.75
C38.9062 13.9531 38.0938 12.2656 35.5938 9.98438
C32.2031 6.89062 28.0938 5.3125 23.2031 5.3125
C16.7031 5.3125 12.9062 8.39062 12.9062 13.6562
C12.9062 19.1406 16.5938 21.9219 25.5 23.2188
C34.2969 24.4062 36.0938 24.8125 38.9062 26.0938
z
" id="Nimbus_Sans_L_Regular-97"/>
      <path d="
M25.4062 52.8125
L16.7969 52.8125
L16.7969 67
L8.5 67
L8.5 52.8125
L1.40625 52.8125
L1.40625 46
L8.5 46
L8.5 6.3125
C8.5 1 12.0938 -2 18.5938 -2
C20.5938 -2 22.5938 -1.8125 25.4062 -1.29688
L25.4062 5.71875
C24.2969 5.40625 23 5.3125 21.4062 5.3125
C17.7969 5.3125 16.7969 6.3125 16.7969 10.0156
L16.7969 46
L25.4062 46
z
" id="Nimbus_Sans_L_Regular-116"/>
      <path d="
M20.5938 29.2344
C20.7969 29.8438 23.2969 34.8281 27 38.0156
C29.5938 40.4062 33 42.0156 36.9062 42.0156
C40.9062 42.0156 42.2969 39.0156 42.2969 35.0312
C42.2969 34.4219 42.2969 32.4375 41.0938 27.7344
L38.5938 17.4688
C37.7969 14.4688 35.9062 7.07812 35.7031 5.98438
C35.2969 4.48438 34.7031 1.89062 34.7031 1.5
C34.7031 0.09375 35.7969 -1 37.2969 -1
C40.2969 -1 40.7969 1.29688 41.7031 4.89062
L47.7031 28.7344
C47.9062 29.5312 53.0938 42.0156 64.0938 42.0156
C68.0938 42.0156 69.5 39.0156 69.5 35.0312
C69.5 29.4375 65.5938 18.5625 63.4062 12.5781
C62.5 10.1719 62 8.875 62 7.07812
C62 2.59375 65.0938 -1 69.9062 -1
C79.2031 -1 82.7031 13.6719 82.7031 14.2656
C82.7031 14.7656 82.2969 15.1719 81.7031 15.1719
C80.7969 15.1719 80.7031 14.875 80.2031 13.1719
C77.9062 5.1875 74.2031 1 70.2031 1
C69.2031 1 67.5938 1 67.5938 4.20312
C67.5938 6.8125 68.7969 10 69.2031 11.0938
C71 15.9062 75.5 27.7031 75.5 33.5156
C75.5 39.5 72 44 64.4062 44
C57.7031 44 52.2969 40.2188 48.2969 34.3281
C48 39.7188 44.7031 44 37.2031 44
C28.2969 44 23.5938 37.7344 21.7969 35.2344
C21.5 40.9062 17.4062 44 13 44
C10.0938 44 7.79688 42.6094 5.90625 38.8125
C4.09375 35.2188 2.70312 29.1406 2.70312 28.7344
C2.70312 28.3438 3.09375 27.8438 3.79688 27.8438
C4.59375 27.8438 4.70312 27.9375 5.29688 30.2344
C6.79688 36.125 8.70312 42.0156 12.7031 42.0156
C15 42.0156 15.7969 40.4062 15.7969 37.4219
C15.7969 35.2188 14.7969 31.3281 14.0938 28.2344
L11.2969 17.4688
C10.9062 15.5625 9.79688 11.0781 9.29688 9.28125
C8.59375 6.6875 7.5 2 7.5 1.5
C7.5 0.09375 8.59375 -1 10.0938 -1
C11.2969 -1 12.7031 -0.40625 13.5 1.09375
C13.7031 1.59375 14.5938 5.09375 15.0938 7.07812
L17.2969 16.0625
z
" id="CMMI12-109"/>
      <path d="
M19.4062 73
L10 73
L10 -0.03125
L19.4062 -0.03125
z
" id="Nimbus_Sans_L_Regular-73"/>
      <path d="
M15 52.4844
L6.70312 52.4844
L6.70312 0
L15 0
z

M15 73
L6.59375 73
L6.59375 62.4844
L15 62.4844
z
" id="Nimbus_Sans_L_Regular-105"/>
      <path d="
M7 52.4844
L7 0
L15.4062 0
L15.4062 28.9531
C15.4062 39.6719 21 46.6875 29.5938 46.6875
C36.2031 46.6875 40.4062 42.6719 40.4062 36.3594
L40.4062 0
L48.7031 0
L48.7031 39.6719
C48.7031 48.3906 42.2031 54 32.0938 54
C24.2969 54 19.2969 50.9844 14.7031 43.6875
L14.7031 52.4844
z
" id="Nimbus_Sans_L_Regular-110"/>
      <path d="
M27.2031 54
C12.5 54 3.59375 43.5312 3.59375 26
C3.59375 8.45312 12.4062 -2 27.2969 -2
C42 -2 51 8.45312 51 25.5938
C51 43.6406 42.2969 54 27.2031 54
M27.2969 46.2812
C36.7031 46.2812 42.2969 38.625 42.2969 25.7031
C42.2969 13.4531 36.5 5.70312 27.2969 5.70312
C18 5.70312 12.2969 13.3594 12.2969 26
C12.2969 38.5312 18 46.2812 27.2969 46.2812" id="Nimbus_Sans_L_Regular-111"/>
      <path d="
M51.2969 24
C51.2969 31.875 50.7031 36.5938 49.2031 40.4219
C45.7969 48.875 37.7969 54 28 54
C13.4062 54 4 42.8438 4 25.7031
C4 8.54688 13.0938 -2 27.7969 -2
C39.7969 -2 48.0938 4.875 50.2031 16.375
L41.7969 16.375
C39.5 9.35938 34.7969 5.70312 28.0938 5.70312
C22.7969 5.70312 18.2969 8.14062 15.5 12.6094
C13.5 15.6562 12.7969 18.7188 12.7031 24
z

M12.9062 30.8125
C13.5938 40.1875 19.5 46.2812 27.9062 46.2812
C36.0938 46.2812 42.4062 39.7031 42.4062 31.4062
C42.4062 31.2031 42.4062 31.0156 42.2969 30.8125
z
" id="Nimbus_Sans_L_Regular-101"/>
      <path d="
M6.90625 52.4844
L6.90625 0
L15.2969 0
L15.2969 27.25
C15.2969 34.7656 17.2031 39.6719 21.2031 42.5781
C23.7969 44.4844 26.2969 45.0781 32.0938 45.0781
L32.0938 53.7031
C30.7031 53.8906 30 54 28.9062 54
C23.5 54 19.4062 50.7812 14.5938 42.9688
L14.5938 52.4844
z
" id="Nimbus_Sans_L_Regular-114"/>
     </defs>
     <g transform="translate(216.144203743 243.197946057)scale(0.1 -0.1)">
      <use transform="translate(0.0 1.79267018699)scale(0.996264009963)" xlink:href="#Nimbus_Sans_L_Regular-73"/>
      <use transform="translate(27.6951696032 1.79267018699)scale(0.996264009963)" xlink:href="#Nimbus_Sans_L_Regular-116"/>
      <use transform="translate(55.3903392065 1.79267018699)scale(0.996264009963)" xlink:href="#Nimbus_Sans_L_Regular-101"/>
      <use transform="translate(110.78201617 1.79267018699)scale(0.996264009963)" xlink:href="#Nimbus_Sans_L_Regular-114"/>
      <use transform="translate(142.961149109 1.79267018699)scale(0.996264009963)" xlink:href="#Nimbus_Sans_L_Regular-97"/>
      <use transform="translate(198.352826072 1.79267018699)scale(0.996264009963)" xlink:href="#Nimbus_Sans_L_Regular-116"/>
      <use transform="translate(226.047995675 1.79267018699)scale(0.996264009963)" xlink:href="#Nimbus_Sans_L_Regular-105"/>
      <use transform="translate(248.164780024 1.79267018699)scale(0.996264009963)" xlink:href="#Nimbus_Sans_L_Regular-111"/>
      <use transform="translate(303.556456987 1.79267018699)scale(0.996264009963)" xlink:href="#Nimbus_Sans_L_Regular-110"/>
      <use transform="translate(386.643303554 1.79267018699)scale(0.996264009963)" xlink:href="#CMMI12-109"/>
     </g>
    </g>
   </g>
   <g id="matplotlib.axis_2">
    <g id="ytick_1">
     <g id="line2d_21">
      <defs>
       <path d="
M0 0
L4 0" id="mc8fcea1516" style="stroke:#000000;stroke-linecap:butt;stroke-width:0.5;"/>
      </defs>
      <g>
       <use style="stroke:#000000;stroke-linecap:butt;stroke-width:0.5;" x="58.5" xlink:href="#mc8fcea1516" y="220.5"/>
      </g>
     </g>
     <g id="line2d_22">
      <defs>
       <path d="
M0 0
L-4 0" id="m0d5b0a6425" style="stroke:#000000;stroke-linecap:butt;stroke-width:0.5;"/>
      </defs>
      <g>
       <use style="stroke:#000000;stroke-linecap:butt;stroke-width:0.5;" x="421.2" xlink:href="#m0d5b0a6425" y="220.5"/>
      </g>
     </g>
     <g id="text_10">
      <!-- $10^{-16}$ -->
      <defs>
       <path d="
M65.9062 23
C67.5938 23 69.4062 23 69.4062 25
C69.4062 27 67.5938 27 65.9062 27
L11.7969 27
C10.0938 27 8.29688 27 8.29688 25
C8.29688 23 10.0938 23 11.7969 23
z
" id="CMSY10-0"/>
      </defs>
      <g transform="translate(30.3681889934 224.554809418)scale(0.1 -0.1)">
       <use transform="scale(0.996264009963)" xlink:href="#CMR17-49"/>
       <use transform="translate(45.6904771171 0.0)scale(0.996264009963)" xlink:href="#CMR17-48"/>
       <use transform="translate(91.3809542341 36.1536389419)scale(0.697381766617)" xlink:href="#CMSY10-0"/>
       <use transform="translate(145.621947482 36.1536389419)scale(0.697381766617)" xlink:href="#CMR17-49"/>
       <use transform="translate(177.605129446 36.1536389419)scale(0.697381766617)" xlink:href="#CMR17-54"/>
      </g>
     </g>
    </g>
    <g id="ytick_2">
     <g id="line2d_23">
      <g>
       <use style="stroke:#000000;stroke-linecap:butt;stroke-width:0.5;" x="58.5" xlink:href="#mc8fcea1516" y="196.538323952"/>
      </g>
     </g>
     <g id="line2d_24">
      <g>
       <use style="stroke:#000000;stroke-linecap:butt;stroke-width:0.5;" x="421.2" xlink:href="#m0d5b0a6425" y="196.538323952"/>
      </g>
     </g>
     <g id="text_11">
      <!-- $10^{-14}$ -->
      <g transform="translate(30.3681889934 200.593133371)scale(0.1 -0.1)">
       <use transform="scale(0.996264009963)" xlink:href="#CMR17-49"/>
       <use transform="translate(45.6904771171 0.0)scale(0.996264009963)" xlink:href="#CMR17-48"/>
       <use transform="translate(91.3809542341 36.1536389419)scale(0.697381766617)" xlink:href="#CMSY10-0"/>
       <use transform="translate(145.621947482 36.1536389419)scale(0.697381766617)" xlink:href="#CMR17-49"/>
       <use transform="translate(177.605129446 36.1536389419)scale(0.697381766617)" xlink:href="#CMR17-52"/>
      </g>
     </g>
    </g>
    <g id="ytick_3">
     <g id="line2d_25">
      <g>
       <use style="stroke:#000000;stroke-linecap:butt;stroke-width:0.5;" x="58.5" xlink:href="#mc8fcea1516" y="172.576647905"/>
      </g>
     </g>
     <g id="line2d_26">
      <g>
       <use style="stroke:#000000;stroke-linecap:butt;stroke-width:0.5;" x="421.2" xlink:href="#m0d5b0a6425" y="172.576647905"/>
      </g>
     </g>
     <g id="text_12">
      <!-- $10^{-12}$ -->
      <g transform="translate(30.3681889934 176.631457323)scale(0.1 -0.1)">
       <use transform="scale(0.996264009963)" xlink:href="#CMR17-49"/>
       <use transform="translate(45.6904771171 0.0)scale(0.996264009963)" xlink:href="#CMR17-48"/>
       <use transform="translate(91.3809542341 36.1536389419)scale(0.697381766617)" xlink:href="#CMSY10-0"/>
       <use transform="translate(145.621947482 36.1536389419)scale(0.697381766617)" xlink:href="#CMR17-49"/>
       <use transform="translate(177.605129446 36.1536389419)scale(0.697381766617)" xlink:href="#CMR17-50"/>
      </g>
     </g>
    </g>
    <g id="ytick_4">
     <g id="line2d_27">
      <g>
       <use style="stroke:#000000;stroke-linecap:butt;stroke-width:0.5;" x="58.5" xlink:href="#mc8fcea1516" y="148.614971857"/>
      </g>
     </g>
     <g id="line2d_28">
      <g>
       <use style="stroke:#000000;stroke-linecap:butt;stroke-width:0.5;" x="421.2" xlink:href="#m0d5b0a6425" y="148.614971857"/>
      </g>
     </g>
     <g id="text_13">
      <!-- $10^{-10}$ -->
      <g transform="translate(30.3681889934 152.669781275)scale(0.1 -0.1)">
       <use transform="scale(0.996264009963)" xlink:href="#CMR17-49"/>
       <use transform="translate(45.6904771171 0.0)scale(0.996264009963)" xlink:href="#CMR17-48"/>
       <use transform="translate(91.3809542341 36.1536389419)scale(0.697381766617)" xlink:href="#CMSY10-0"/>
       <use transform="translate(145.621947482 36.1536389419)scale(0.697381766617)" xlink:href="#CMR17-49"/>
       <use transform="translate(177.605129446 36.1536389419)scale(0.697381766617)" xlink:href="#CMR17-48"/>
      </g>
     </g>
    </g>
    <g id="ytick_5">
     <g id="line2d_29">
      <g>
       <use style="stroke:#000000;stroke-linecap:butt;stroke-width:0.5;" x="58.5" xlink:href="#mc8fcea1516" y="124.653295809"/>
      </g>
     </g>
     <g id="line2d_30">
      <g>
       <use style="stroke:#000000;stroke-linecap:butt;stroke-width:0.5;" x="421.2" xlink:href="#m0d5b0a6425" y="124.653295809"/>
      </g>
     </g>
     <g id="text_14">
      <!-- $10^{-8}$ -->
      <defs>
       <path d="
M27.2031 35.375
C33.5 38.5625 39.9062 43.3281 39.9062 50.9844
C39.9062 60.0312 31.0938 65.2969 23 65.2969
C13.9062 65.2969 5.90625 58.7344 5.90625 49.6875
C5.90625 47.2031 6.5 42.9219 10.4062 39.1406
C11.4062 38.1562 15.5938 35.1719 18.2969 33.2812
C13.7969 30.9844 3.29688 25.5312 3.29688 14.5938
C3.29688 4.35938 13.0938 -2 22.7969 -2
C33.5 -2 42.5 5.65625 42.5 15.7969
C42.5 24.8438 36.4062 29.0312 32.4062 31.7031
z

M14.0938 44.125
C13.2969 44.625 9.29688 47.7031 9.29688 52.375
C9.29688 58.4375 15.5938 63 22.7969 63
C30.7031 63 36.5 57.4531 36.5 50.9844
C36.5 41.7344 26.0938 36.4688 25.5938 36.4688
C25.5 36.4688 25.4062 36.4688 24.5938 37.0781
z

M32.5 23.7344
C34 22.6406 38.7969 19.375 38.7969 13.2969
C38.7969 5.95312 31.4062 0.390625 23 0.390625
C13.9062 0.390625 7 6.84375 7 14.6875
C7 22.5469 13.0938 29.0938 20 32.1875
z
" id="CMR17-56"/>
      </defs>
      <g transform="translate(34.3394266131 128.708105227)scale(0.1 -0.1)">
       <use transform="scale(0.996264009963)" xlink:href="#CMR17-49"/>
       <use transform="translate(45.6904771171 0.0)scale(0.996264009963)" xlink:href="#CMR17-48"/>
       <use transform="translate(91.3809542341 36.1536389419)scale(0.697381766617)" xlink:href="#CMSY10-0"/>
       <use transform="translate(145.621947482 36.1536389419)scale(0.697381766617)" xlink:href="#CMR17-56"/>
      </g>
     </g>
    </g>
    <g id="ytick_6">
     <g id="line2d_31">
      <g>
       <use style="stroke:#000000;stroke-linecap:butt;stroke-width:0.5;" x="58.5" xlink:href="#mc8fcea1516" y="100.691619761"/>
      </g>
     </g>
     <g id="line2d_32">
      <g>
       <use style="stroke:#000000;stroke-linecap:butt;stroke-width:0.5;" x="421.2" xlink:href="#m0d5b0a6425" y="100.691619761"/>
      </g>
     </g>
     <g id="text_15">
      <!-- $10^{-6}$ -->
      <g transform="translate(34.3394266131 104.74642918)scale(0.1 -0.1)">
       <use transform="scale(0.996264009963)" xlink:href="#CMR17-49"/>
       <use transform="translate(45.6904771171 0.0)scale(0.996264009963)" xlink:href="#CMR17-48"/>
       <use transform="translate(91.3809542341 36.1536389419)scale(0.697381766617)" xlink:href="#CMSY10-0"/>
       <use transform="translate(145.621947482 36.1536389419)scale(0.697381766617)" xlink:href="#CMR17-54"/>
      </g>
     </g>
    </g>
    <g id="ytick_7">
     <g id="line2d_33">
      <g>
       <use style="stroke:#000000;stroke-linecap:butt;stroke-width:0.5;" x="58.5" xlink:href="#mc8fcea1516" y="76.7299437138"/>
      </g>
     </g>
     <g id="line2d_34">
      <g>
       <use style="stroke:#000000;stroke-linecap:butt;stroke-width:0.5;" x="421.2" xlink:href="#m0d5b0a6425" y="76.7299437138"/>
      </g>
     </g>
     <g id="text_16">
      <!-- $10^{-4}$ -->
      <g transform="translate(34.3394266131 80.7847531321)scale(0.1 -0.1)">
       <use transform="scale(0.996264009963)" xlink:href="#CMR17-49"/>
       <use transform="translate(45.6904771171 0.0)scale(0.996264009963)" xlink:href="#CMR17-48"/>
       <use transform="translate(91.3809542341 36.1536389419)scale(0.697381766617)" xlink:href="#CMSY10-0"/>
       <use transform="translate(145.621947482 36.1536389419)scale(0.697381766617)" xlink:href="#CMR17-52"/>
      </g>
     </g>
    </g>
    <g id="ytick_8">
     <g id="line2d_35">
      <g>
       <use style="stroke:#000000;stroke-linecap:butt;stroke-width:0.5;" x="58.5" xlink:href="#mc8fcea1516" y="52.7682676661"/>
      </g>
     </g>
     <g id="line2d_36">
      <g>
       <use style="stroke:#000000;stroke-linecap:butt;stroke-width:0.5;" x="421.2" xlink:href="#m0d5b0a6425" y="52.7682676661"/>
      </g>
     </g>
     <g id="text_17">
      <!-- $10^{-2}$ -->
      <g transform="translate(34.3394266131 56.8230770844)scale(0.1 -0.1)">
       <use transform="scale(0.996264009963)" xlink:href="#CMR17-49"/>
       <use transform="translate(45.6904771171 0.0)scale(0.996264009963)" xlink:href="#CMR17-48"/>
       <use transform="translate(91.3809542341 36.1536389419)scale(0.697381766617)" xlink:href="#CMSY10-0"/>
       <use transform="translate(145.621947482 36.1536389419)scale(0.697381766617)" xlink:href="#CMR17-50"/>
      </g>
     </g>
    </g>
    <g id="ytick_9">
     <g id="line2d_37">
      <g>
       <use style="stroke:#000000;stroke-linecap:butt;stroke-width:0.5;" x="58.5" xlink:href="#mc8fcea1516" y="28.8065916184"/>
      </g>
     </g>
     <g id="line2d_38">
      <g>
       <use style="stroke:#000000;stroke-linecap:butt;stroke-width:0.5;" x="421.2" xlink:href="#m0d5b0a6425" y="28.8065916184"/>
      </g>
     </g>
     <g id="text_18">
      <!-- $10^{0}$ -->
      <g transform="translate(40.5660918771 32.8614010367)scale(0.1 -0.1)">
       <use transform="scale(0.996264009963)" xlink:href="#CMR17-49"/>
       <use transform="translate(45.6904771171 0.0)scale(0.996264009963)" xlink:href="#CMR17-48"/>
       <use transform="translate(91.3809542341 36.1536389419)scale(0.697381766617)" xlink:href="#CMR17-48"/>
      </g>
     </g>
    </g>
    <g id="ytick_10">
     <g id="line2d_39">
      <defs>
       <path d="
M0 0
L2 0" id="m57a2c8792a" style="stroke:#000000;stroke-linecap:butt;stroke-width:0.5;"/>
      </defs>
      <g>
       <use style="stroke:#000000;stroke-linecap:butt;stroke-width:0.5;" x="58.5" xlink:href="#m57a2c8792a" y="220.5"/>
      </g>
     </g>
     <g id="line2d_40">
      <defs>
       <path d="
M0 0
L-2 0" id="m46a939d668" style="stroke:#000000;stroke-linecap:butt;stroke-width:0.5;"/>
      </defs>
      <g>
       <use style="stroke:#000000;stroke-linecap:butt;stroke-width:0.5;" x="421.2" xlink:href="#m46a939d668" y="220.5"/>
      </g>
     </g>
    </g>
    <g id="ytick_11">
     <g id="line2d_41">
      <g>
       <use style="stroke:#000000;stroke-linecap:butt;stroke-width:0.5;" x="58.5" xlink:href="#m57a2c8792a" y="196.538323952"/>
      </g>
     </g>
     <g id="line2d_42">
      <g>
       <use style="stroke:#000000;stroke-linecap:butt;stroke-width:0.5;" x="421.2" xlink:href="#m46a939d668" y="196.538323952"/>
      </g>
     </g>
    </g>
    <g id="ytick_12">
     <g id="line2d_43">
      <g>
       <use style="stroke:#000000;stroke-linecap:butt;stroke-width:0.5;" x="58.5" xlink:href="#m57a2c8792a" y="172.576647905"/>
      </g>
     </g>
     <g id="line2d_44">
      <g>
       <use style="stroke:#000000;stroke-linecap:butt;stroke-width:0.5;" x="421.2" xlink:href="#m46a939d668" y="172.576647905"/>
      </g>
     </g>
    </g>
    <g id="ytick_13">
     <g id="line2d_45">
      <g>
       <use style="stroke:#000000;stroke-linecap:butt;stroke-width:0.5;" x="58.5" xlink:href="#m57a2c8792a" y="148.614971857"/>
      </g>
     </g>
     <g id="line2d_46">
      <g>
       <use style="stroke:#000000;stroke-linecap:butt;stroke-width:0.5;" x="421.2" xlink:href="#m46a939d668" y="148.614971857"/>
      </g>
     </g>
    </g>
    <g id="ytick_14">
     <g id="line2d_47">
      <g>
       <use style="stroke:#000000;stroke-linecap:butt;stroke-width:0.5;" x="58.5" xlink:href="#m57a2c8792a" y="124.653295809"/>
      </g>
     </g>
     <g id="line2d_48">
      <g>
       <use style="stroke:#000000;stroke-linecap:butt;stroke-width:0.5;" x="421.2" xlink:href="#m46a939d668" y="124.653295809"/>
      </g>
     </g>
    </g>
    <g id="ytick_15">
     <g id="line2d_49">
      <g>
       <use style="stroke:#000000;stroke-linecap:butt;stroke-width:0.5;" x="58.5" xlink:href="#m57a2c8792a" y="100.691619761"/>
      </g>
     </g>
     <g id="line2d_50">
      <g>
       <use style="stroke:#000000;stroke-linecap:butt;stroke-width:0.5;" x="421.2" xlink:href="#m46a939d668" y="100.691619761"/>
      </g>
     </g>
    </g>
    <g id="ytick_16">
     <g id="line2d_51">
      <g>
       <use style="stroke:#000000;stroke-linecap:butt;stroke-width:0.5;" x="58.5" xlink:href="#m57a2c8792a" y="76.7299437138"/>
      </g>
     </g>
     <g id="line2d_52">
      <g>
       <use style="stroke:#000000;stroke-linecap:butt;stroke-width:0.5;" x="421.2" xlink:href="#m46a939d668" y="76.7299437138"/>
      </g>
     </g>
    </g>
    <g id="ytick_17">
     <g id="line2d_53">
      <g>
       <use style="stroke:#000000;stroke-linecap:butt;stroke-width:0.5;" x="58.5" xlink:href="#m57a2c8792a" y="52.7682676661"/>
      </g>
     </g>
     <g id="line2d_54">
      <g>
       <use style="stroke:#000000;stroke-linecap:butt;stroke-width:0.5;" x="421.2" xlink:href="#m46a939d668" y="52.7682676661"/>
      </g>
     </g>
    </g>
    <g id="ytick_18">
     <g id="line2d_55">
      <g>
       <use style="stroke:#000000;stroke-linecap:butt;stroke-width:0.5;" x="58.5" xlink:href="#m57a2c8792a" y="28.8065916184"/>
      </g>
     </g>
     <g id="line2d_56">
      <g>
       <use style="stroke:#000000;stroke-linecap:butt;stroke-width:0.5;" x="421.2" xlink:href="#m46a939d668" y="28.8065916184"/>
      </g>
     </g>
    </g>
    <g id="text_19">
     <!-- $\|b-Ax_m\|/\|b\|$ -->
     <defs>
      <path d="
M47.4062 40.7188
C44.2031 40.1094 43 37.7188 43 35.8281
C43 33.4219 44.9062 32.625 46.2969 32.625
C49.2969 32.625 51.4062 35.2188 51.4062 37.9219
C51.4062 42.1094 46.5938 44 42.4062 44
C36.2969 44 32.9062 38.0156 32 36.125
C29.7031 44 23.5 44 21.7031 44
C11.5 44 6.09375 30.9375 6.09375 28.7344
C6.09375 28.3438 6.5 27.8438 7.20312 27.8438
C8 27.8438 8.20312 28.4375 8.40625 28.8438
C11.7969 39.9219 18.5 42.0156 21.4062 42.0156
C25.9062 42.0156 26.7969 37.8125 26.7969 35.4219
C26.7969 33.2344 26.2031 30.9375 25 26.1406
L21.5938 12.4688
C20.0938 6.48438 17.2031 1 11.9062 1
C11.4062 1 8.90625 1 6.79688 2.29688
C10.4062 3 11.2031 5.98438 11.2031 7.1875
C11.2031 9.1875 9.70312 10.375 7.79688 10.375
C5.40625 10.375 2.79688 8.28125 2.79688 5.09375
C2.79688 0.890625 7.5 -1 11.7969 -1
C16.5938 -1 20 2.79688 22.0938 6.89062
C23.7031 1 28.7031 -1 32.4062 -1
C42.5938 -1 48 12.0781 48 14.2656
C48 14.7656 47.5938 15.1719 47 15.1719
C46.0938 15.1719 46 14.6719 45.7031 13.875
C43 5.09375 37.2031 1 32.7031 1
C29.2031 1 27.2969 3.59375 27.2969 7.6875
C27.2969 9.875 27.7031 11.4688 29.2969 18.0625
L32.7969 31.625
C34.2969 37.625 37.7031 42.0156 42.2969 42.0156
C42.5 42.0156 45.2969 42.0156 47.4062 40.7188" id="CMMI12-120"/>
      <path d="
M23.0938 66.5156
C23.2031 66.9219 23.4062 67.5156 23.4062 68.0156
C23.4062 69 22.4062 69 22.2031 69
C22.0938 69 18.5 68.6406 16.7031 68.3906
C15 68.3906 13.5 68.0938 11.7031 68.0938
C9.29688 67.8906 8.59375 67.7969 8.59375 66
C8.59375 65 9.59375 65 10.5938 65
C15.7031 65 15.7031 64.0938 15.7031 63.0938
C15.7031 62.4219 14.9062 59.5156 14.5 57.7344
L12.0938 48.1875
C11.0938 44.2188 5.40625 21.6562 5 19.875
C4.5 17.3906 4.5 15.7031 4.5 14.4062
C4.5 4.28125 10.2031 -1 16.7031 -1
C28.2969 -1 40.2969 13.875 40.2969 28.3438
C40.2969 37.5156 35.0938 44 27.5938 44
C22.4062 44 17.7031 39.7188 15.7969 37.7188
z

M16.7969 1
C13.5938 1 10.0938 3.39062 10.0938 11.1719
C10.0938 14.4688 10.4062 16.3594 12.2031 23.3438
C12.5 24.6406 14.0938 31.0312 14.5 32.3281
C14.7031 33.125 20.5938 42.0156 27.4062 42.0156
C31.7969 42.0156 33.7969 37.625 33.7969 32.4375
C33.7969 27.6406 31 16.3594 28.5 11.1719
C26 5.78125 21.4062 1 16.7969 1" id="CMMI12-98"/>
      <path d="
M17.2188 71.5938
C17.2188 73.2031 17.2188 75 15.2188 75
C13.2188 75 13.2188 72.7969 13.2188 71.2969
L13.2188 -21.2969
C13.2188 -22.9062 13.2188 -25 15.2188 -25
C17.2188 -25 17.2188 -23.2031 17.2188 -21.5938
z

M36.7188 71.2969
C36.7188 72.9062 36.7188 75 34.7188 75
C32.7188 75 32.7188 73.2031 32.7188 71.5938
L32.7188 -21.5938
C32.7188 -23.2031 32.7188 -25 34.7188 -25
C36.7188 -25 36.7188 -22.7969 36.7188 -21.2969
z
" id="CMSY10-107"/>
      <path d="
M42.9062 71.2969
C42.9062 71.4062 43.5 72.9062 43.5 73.0938
C43.5 74.2969 42.5 75 41.7031 75
C41.2031 75 40.2969 75 39.5 72.7969
L6 -21.2969
C6 -21.4062 5.40625 -22.8906 5.40625 -23.0938
C5.40625 -24.2969 6.40625 -25 7.20312 -25
C7.79688 -25 8.70312 -24.8906 9.40625 -22.7969
z
" id="CMMI12-61"/>
      <path d="
M17 10.7969
C13.5 4.90625 10.0938 2.90625 5.29688 2.90625
C4.20312 2.90625 3.40625 2.90625 3.40625 1.04688
C3.40625 0.421875 3.90625 0 4.59375 0
C6.40625 0 10.9062 0 12.7031 0
C15.5938 0 18.7969 0 21.5938 0
C22.2031 0 23.4062 0 23.4062 1.90625
C23.4062 2.8125 22.5938 2.90625 22 2.90625
C19.7031 3.10938 17.7969 3.89062 17.7969 6.21875
C17.7969 7.59375 18.4062 8.67188 19.7031 10.8281
L27.2969 23.1094
L52.7969 23.1094
C52.9062 22.2344 52.9062 21.4375 53 20.5469
C53.2969 17.9844 54.5 7.73438 54.5 5.875
C54.5 2.90625 49.4062 2.90625 47.7969 2.90625
C46.7031 2.90625 45.5938 2.90625 45.5938 1.09375
C45.5938 0 46.5 0 47.0938 0
C48.7969 0 50.7969 0 52.5 0
L58.2031 0
C64.2969 0 68.7031 0 68.7969 0
C69.5 0 70.5938 0 70.5938 1.90625
C70.5938 2.90625 69.7031 2.90625 68.2031 2.90625
C62.7031 2.90625 62.5938 3.8125 62.2969 6.78125
L56.2031 68.8125
C56 70.7969 55.5938 71 54.5 71
C53.5 71 52.9062 70.7969 52 69.2969
z

M29 26
L49.0938 59.6719
L52.5 26
z
" id="CMMI12-65"/>
     </defs>
     <g transform="translate(25.3681889934 156.03402396)rotate(-90.0)scale(0.1 -0.1)">
      <use transform="translate(0.0 24.9066002491)scale(0.996264009963)" xlink:href="#CMSY10-107"/>
      <use transform="translate(49.8133829195 24.9066002491)scale(0.996264009963)" xlink:href="#CMMI12-98"/>
      <use transform="translate(113.428464061 24.9066002491)scale(0.996264009963)" xlink:href="#CMSY10-0"/>
      <use transform="translate(213.055138689 24.9066002491)scale(0.996264009963)" xlink:href="#CMMI12-65"/>
      <use transform="translate(286.183023987 24.9066002491)scale(0.996264009963)" xlink:href="#CMMI12-120"/>
      <use transform="translate(341.61708352 9.96268570497)scale(0.697381766617)" xlink:href="#CMMI12-109"/>
      <use transform="translate(401.844006606 24.9066002491)scale(0.996264009963)" xlink:href="#CMSY10-107"/>
      <use transform="translate(451.657389526 24.9066002491)scale(0.996264009963)" xlink:href="#CMMI12-61"/>
      <use transform="translate(500.432308287 24.9066002491)scale(0.996264009963)" xlink:href="#CMSY10-107"/>
      <use transform="translate(550.245691207 24.9066002491)scale(0.996264009963)" xlink:href="#CMMI12-98"/>
      <use transform="translate(591.72156537 24.9066002491)scale(0.996264009963)" xlink:href="#CMSY10-107"/>
     </g>
    </g>
   </g>
   <g id="patch_3">
    <path d="
M58.5 25.2
L421.2 25.2" style="fill:none;stroke:#000000;"/>
   </g>
   <g id="patch_4">
    <path d="
M421.2 220.5
L421.2 25.2" style="fill:none;stroke:#000000;"/>
   </g>
   <g id="patch_5">
    <path d="
M58.5 220.5
L421.2 220.5" style="fill:none;stroke:#000000;"/>
   </g>
   <g id="patch_6">
    <path d="
M58.5 220.5
L58.5 25.2" style="fill:none;stroke:#000000;"/>
   </g>
   <g id="legend_1">
    <g id="patch_7">
     <path d="
M64.5 214.5
L249.532 214.5
L249.532 139.068
L64.5 139.068
L64.5 214.5
z
" style="fill:#ffffff;stroke:#000000;"/>
    </g>
    <g id="line2d_57">
     <path d="
M72.9 148.407
L89.7 148.407" style="fill:none;stroke:#0000ff;"/>
    </g>
    <g id="line2d_58"/>
    <g id="text_20">
     <!-- GMRES $Ax=b$ -->
     <defs>
      <path d="
M64.2969 31.5156
C65.7969 31.5156 67.2969 31.5156 67.2969 33.2031
C67.2969 35 65.5938 35 63.9062 35
L8 35
C6.29688 35 4.59375 35 4.59375 33.2031
C4.59375 31.5156 6.09375 31.5156 7.59375 31.5156
z

M63.9062 14
C65.5938 14 67.2969 14 67.2969 15.7969
C67.2969 17.4844 65.7969 17.4844 64.2969 17.4844
L7.59375 17.4844
C6.09375 17.4844 4.59375 17.4844 4.59375 15.7969
C4.59375 14 6.29688 14 8 14
z
" id="CMR17-61"/>
      <path d="
M70.9062 39
L40.5 39
L40.5 30.7969
L62.7031 30.7969
L62.7031 28.7656
C62.7031 15.6719 53.0938 6.20312 39.7969 6.20312
C32.4062 6.20312 25.7031 8.89062 21.4062 13.5938
C16.5938 18.7656 13.7031 27.4375 13.7031 36.4062
C13.7031 54.2344 23.9062 66 39.2969 66
C50.4062 66 58.4062 60.375 60.4062 51.125
L69.9062 51.125
C67.2969 65.7969 56.0938 74.2188 39.4062 74.2188
C30.5 74.2188 23.2969 71.9219 17.5938 67.2344
C9.20312 60.25 4.40625 48.9844 4.40625 35.9062
C4.40625 13.5625 18.0938 -2 37.7969 -2
C47.7031 -2 55.5938 1.70312 62.7031 9.625
L65 -0.109375
L70.9062 -0.109375
z
" id="Nimbus_Sans_L_Regular-71"/>
      <path d="
M46.7969 -0.03125
L67.2969 61.1719
L67.2969 -0.03125
L76.0938 -0.03125
L76.0938 73
L63.2031 73
L42 9.39062
L20.4062 73
L7.5 73
L7.5 -0.03125
L16.2969 -0.03125
L16.2969 61.1719
L37 -0.03125
z
" id="Nimbus_Sans_L_Regular-77"/>
      <path d="
M18.2969 33
L58 33
L58 41.2188
L18.2969 41.2188
L18.2969 64.7812
L59.5 64.7812
L59.5 73
L9 73
L9 0
L61.2969 0
L61.2969 8.21875
L18.2969 8.21875
z
" id="Nimbus_Sans_L_Regular-69"/>
      <path d="
M59.5938 52.1094
C59.5 66.4844 49.7031 74.8125 32.9062 74.8125
C16.9062 74.8125 7 66.5625 7 53.2812
C7 44.3281 11.7031 38.7031 21.2969 36.1875
L39.4062 31.3594
C48.5938 28.9375 52.7969 25.2188 52.7969 19.4844
C52.7969 15.5469 50.7031 11.5312 47.5938 9.32812
C44.7031 7.3125 40.0938 6.20312 34.2031 6.20312
C26.2969 6.20312 20.9062 8.125 17.4062 12.3438
C14.7031 15.5625 13.5 19.0938 13.5938 23.6094
L4.79688 23.6094
C4.90625 16.8906 6.20312 12.4688 9.09375 8.4375
C14.0938 1.60938 22.5 -2 33.5938 -2
C42.2969 -2 49.4062 0.015625 54.0938 3.625
C59 7.54688 62.0938 14.0781 62.0938 20.4219
C62.0938 29.4688 56.5 36.1094 46.5938 38.8281
L28.2969 43.7656
C19.5 46.1719 16.2969 48.9844 16.2969 54.625
C16.2969 62.0625 22.7969 67 32.5938 67
C44.2031 67 50.7031 61.6719 50.7969 52.1094
z
" id="Nimbus_Sans_L_Regular-83"/>
      <path d="
M18.5938 31.7812
L42.5938 31.7812
C50.9062 31.7812 54.5938 27.7188 54.5938 18.5469
L54.5 11.9062
C54.5 7.3125 55.2969 2.82812 56.5938 -0.21875
L67.9062 -0.21875
L67.9062 2.125
C64.4062 4.5625 63.7031 7.21875 63.5 17.0781
C63.4062 29.2656 61.5 32.9375 53.5938 36.3906
C61.7969 40.3594 65.0938 45.4062 65.0938 53.6562
C65.0938 66.1406 57.2031 73 42.9062 73
L9.29688 73
L9.29688 -0.21875
L18.5938 -0.21875
z

M18.5938 40
L18.5938 64.7812
L41.0938 64.7812
C46.2969 64.7812 49.2969 64 51.5938 62.0156
C54.0938 59.9375 55.4062 56.6875 55.4062 52.3438
C55.4062 43.8438 51 40 41.0938 40
z
" id="Nimbus_Sans_L_Regular-82"/>
     </defs>
     <g transform="translate(102.9 152.821973629)scale(0.12 -0.12)">
      <use transform="translate(0.0 1.79267018699)scale(0.996264009963)" xlink:href="#Nimbus_Sans_L_Regular-71"/>
      <use transform="translate(77.5083701014 1.79267018699)scale(0.996264009963)" xlink:href="#Nimbus_Sans_L_Regular-77"/>
      <use transform="translate(160.496800329 1.79267018699)scale(0.996264009963)" xlink:href="#Nimbus_Sans_L_Regular-82"/>
      <use transform="translate(232.426785176 1.79267018699)scale(0.996264009963)" xlink:href="#Nimbus_Sans_L_Regular-69"/>
      <use transform="translate(298.876816309 1.79267018699)scale(0.996264009963)" xlink:href="#Nimbus_Sans_L_Regular-83"/>
      <use transform="translate(393.022017045 1.79267018699)scale(0.996264009963)" xlink:href="#CMMI12-65"/>
      <use transform="translate(466.149902344 1.79267018699)scale(0.996264009963)" xlink:href="#CMMI12-120"/>
      <use transform="translate(549.257970599 1.79267018699)scale(0.996264009963)" xlink:href="#CMR17-61"/>
      <use transform="translate(648.646767736 1.79267018699)scale(0.996264009963)" xlink:href="#CMMI12-98"/>
     </g>
    </g>
    <g id="line2d_59">
     <path d="
M72.9 167.713
L89.7 167.713" style="fill:none;stroke:#008000;"/>
    </g>
    <g id="line2d_60"/>
    <g id="text_21">
     <!-- GMRES $(PA+E_m)x=Pb$ -->
     <defs>
      <path d="
M37.7031 23.5156
L64.2031 23.5156
C65.5938 23.5156 67.2969 23.5156 67.2969 25.2031
C67.2969 27 65.7031 27 64.2031 27
L37.7031 27
L37.7031 53.3281
C37.7031 54.7188 37.7031 56.4219 36 56.4219
C34.2031 56.4219 34.2031 54.8281 34.2031 53.3281
L34.2031 27
L7.70312 27
C6.29688 27 4.59375 27 4.59375 25.3125
C4.59375 23.5156 6.20312 23.5156 7.70312 23.5156
L34.2031 23.5156
L34.2031 -2.90625
C34.2031 -4.29688 34.2031 -6 35.9062 -6
C37.7031 -6 37.7031 -4.40625 37.7031 -2.90625
z
" id="CMR17-43"/>
      <path d="
M29.5938 31.6094
L46.4062 31.6094
C60.2031 31.6094 74 41.7656 74 53.1406
C74 60.9062 67.4062 68 54.7969 68
L23.9062 68
C22 68 21.0938 68 21.0938 66.1094
C21.0938 65.1094 22 65.1094 23.5 65.1094
C29.5938 65.1094 29.5938 64.3125 29.5938 63.2031
C29.5938 63.0156 29.5938 62.4062 29.2031 60.9219
L15.7031 7.375
C14.7969 3.89062 14.5938 2.89062 7.59375 2.89062
C5.70312 2.89062 4.70312 2.89062 4.70312 1.09375
C4.70312 0 5.59375 0 6.20312 0
C8.09375 0 10.0938 0 12 0
L23.7031 0
C25.5938 0 27.7031 0 29.5938 0
C30.4062 0 31.5 0 31.5 1.89062
C31.5 2.89062 30.5938 2.89062 29.0938 2.89062
C23.0938 2.89062 23 3.59375 23 4.59375
C23 5.07812 23.0938 5.76562 23.2031 6.26562
z

M36.7969 61.2188
C37.7031 64.9062 38.0938 65.1094 42 65.1094
L51.9062 65.1094
C59.4062 65.1094 65.5938 62.7031 65.5938 55.2344
C65.5938 52.6406 64.2969 44.1719 59.7031 39.5938
C58 37.7969 53.2031 34 44.0938 34
L30 34
z
" id="CMMI12-80"/>
      <path d="
M69.5 23.2656
C69.5938 23.5625 69.9062 24.2812 69.9062 24.6719
C69.9062 25.1719 69.5 25.6719 68.9062 25.6719
C68.5 25.6719 68.2969 25.5781 68 25.2656
C67.7969 25.1719 67.7969 24.9688 66.9062 22.9531
C61 8.90625 56.7031 2.89062 40.7031 2.89062
L26.0938 2.89062
C24.7031 2.89062 24.5 2.89062 23.9062 3
C22.7969 3.09375 22.7031 3.29688 22.7031 4.09375
C22.7031 4.8125 22.9062 5.40625 23.0938 6.29688
L30 34
L39.9062 34
C47.7031 34 48.2969 32.2812 48.2969 29.2812
C48.2969 28.2812 48.2969 27.375 47.5938 24.375
C47.4062 23.9688 47.2969 23.5625 47.2969 23.2656
C47.2969 22.5625 47.7969 22.2656 48.4062 22.2656
C49.2969 22.2656 49.4062 22.9531 49.7969 24.3594
L55.5 47.5156
C55.5 48 55.0938 48.5 54.5 48.5
C53.5938 48.5 53.5 48.1094 53.0938 46.7188
C51.0938 39.0781 49.0938 36.8906 40.2031 36.8906
L30.7031 36.8906
L36.9062 61.3281
C37.7969 64.8125 38 65.1094 42.0938 65.1094
L56.4062 65.1094
C68.7031 65.1094 71.2031 61.8281 71.2031 54.2812
C71.2031 54.1719 71.2031 51.4062 70.7969 48.1094
C70.7031 47.7188 70.5938 47.125 70.5938 46.9219
C70.5938 46.125 71.0938 45.8281 71.7031 45.8281
C72.4062 45.8281 72.7969 46.2344 73 48
L75.0938 65.4062
C75.0938 65.7031 75.2969 66.7031 75.2969 66.9062
C75.2969 68 74.4062 68 72.5938 68
L23.7969 68
C21.9062 68 20.9062 68 20.9062 66.2031
C20.9062 65.1094 21.5938 65.1094 23.2969 65.1094
C29.5 65.1094 29.5 64.4062 29.5 63.3125
C29.5 62.8125 29.4062 62.4062 29.0938 61.3125
L15.5938 7.39062
C14.7031 3.89062 14.5 2.89062 7.5 2.89062
C5.59375 2.89062 4.59375 2.89062 4.59375 1.09375
C4.59375 0 5.20312 0 7.20312 0
L57.4062 0
C59.5938 0 59.7031 0.09375 60.4062 1.71875
z
" id="CMMI12-69"/>
      <path d="
M30.5938 -24.3906
C30.5938 -24.2969 30.5938 -24.0938 30.2969 -23.7969
C25.7031 -19.125 13.4062 -6.375 13.4062 24.6875
C13.4062 55.75 25.5 68.3906 30.4062 73.3594
C30.4062 73.4688 30.5938 73.6719 30.5938 73.9531
C30.5938 74.25 30.2969 74.4531 29.9062 74.4531
C28.7969 74.4531 20.2969 67.0781 15.4062 56.125
C10.4062 45.0781 9 34.3281 9 24.7812
C9 17.6094 9.70312 5.46875 15.7031 -7.375
C20.5 -17.7344 28.7031 -25 29.9062 -25
C30.4062 -25 30.5938 -24.7969 30.5938 -24.3906" id="CMR17-40"/>
      <path d="
M26.2969 24.6719
C26.2969 31.8438 25.5938 43.9844 19.5938 56.8281
C14.7969 67.1875 6.59375 74.4531 5.40625 74.4531
C5.09375 74.4531 4.70312 74.3438 4.70312 73.8438
C4.70312 73.6562 4.79688 73.5469 4.90625 73.3438
C9.70312 68.375 21.9062 55.7344 21.9062 24.7812
C21.9062 -6.28125 9.79688 -18.9219 4.90625 -23.9062
C4.79688 -24.0938 4.70312 -24.2031 4.70312 -24.3906
C4.70312 -24.8906 5.09375 -25 5.40625 -25
C6.5 -25 15 -17.625 19.9062 -6.67188
C24.9062 4.375 26.2969 15.125 26.2969 24.6719" id="CMR17-41"/>
     </defs>
     <g transform="translate(102.9 173.108395884)scale(0.12 -0.12)">
      <use transform="translate(0.0 24.8232640781)scale(0.996264009963)" xlink:href="#Nimbus_Sans_L_Regular-71"/>
      <use transform="translate(77.5083701014 24.8232640781)scale(0.996264009963)" xlink:href="#Nimbus_Sans_L_Regular-77"/>
      <use transform="translate(160.496800329 24.8232640781)scale(0.996264009963)" xlink:href="#Nimbus_Sans_L_Regular-82"/>
      <use transform="translate(232.426785176 24.8232640781)scale(0.996264009963)" xlink:href="#Nimbus_Sans_L_Regular-69"/>
      <use transform="translate(298.876816309 24.8232640781)scale(0.996264009963)" xlink:href="#Nimbus_Sans_L_Regular-83"/>
      <use transform="translate(393.022017045 24.8232640781)scale(0.996264009963)" xlink:href="#CMR17-40"/>
      <use transform="translate(428.302784845 24.8232640781)scale(0.996264009963)" xlink:href="#CMMI12-80"/>
      <use transform="translate(504.72860562 24.8232640781)scale(0.996264009963)" xlink:href="#CMMI12-65"/>
      <use transform="translate(599.995697896 24.8232640781)scale(0.996264009963)" xlink:href="#CMR17-43"/>
      <use transform="translate(693.849693289 24.8232640781)scale(0.996264009963)" xlink:href="#CMMI12-69"/>
      <use transform="translate(766.06091111 9.87934953397)scale(0.697381766617)" xlink:href="#CMMI12-109"/>
      <use transform="translate(826.287834196 24.8232640781)scale(0.996264009963)" xlink:href="#CMR17-41"/>
      <use transform="translate(861.568601995 24.8232640781)scale(0.996264009963)" xlink:href="#CMMI12-120"/>
      <use transform="translate(944.67667025 24.8232640781)scale(0.996264009963)" xlink:href="#CMR17-61"/>
      <use transform="translate(1044.06546739 24.8232640781)scale(0.996264009963)" xlink:href="#CMMI12-80"/>
      <use transform="translate(1120.49128816 24.8232640781)scale(0.996264009963)" xlink:href="#CMMI12-98"/>
     </g>
    </g>
    <g id="line2d_61">
     <path d="
M72.9 184.998
L89.7 184.998" style="fill:none;stroke:#ff0000;"/>
    </g>
    <g id="line2d_62"/>
    <g id="text_22">
     <!-- GMRES $PAx=Pb$ -->
     <g transform="translate(102.9 189.413577746)scale(0.12 -0.12)">
      <use transform="translate(0.0 1.79267018699)scale(0.996264009963)" xlink:href="#Nimbus_Sans_L_Regular-71"/>
      <use transform="translate(77.5083701014 1.79267018699)scale(0.996264009963)" xlink:href="#Nimbus_Sans_L_Regular-77"/>
      <use transform="translate(160.496800329 1.79267018699)scale(0.996264009963)" xlink:href="#Nimbus_Sans_L_Regular-82"/>
      <use transform="translate(232.426785176 1.79267018699)scale(0.996264009963)" xlink:href="#Nimbus_Sans_L_Regular-69"/>
      <use transform="translate(298.876816309 1.79267018699)scale(0.996264009963)" xlink:href="#Nimbus_Sans_L_Regular-83"/>
      <use transform="translate(393.022017045 1.79267018699)scale(0.996264009963)" xlink:href="#CMMI12-80"/>
      <use transform="translate(469.44783782 1.79267018699)scale(0.996264009963)" xlink:href="#CMMI12-65"/>
      <use transform="translate(542.575723118 1.79267018699)scale(0.996264009963)" xlink:href="#CMMI12-120"/>
      <use transform="translate(625.683791373 1.79267018699)scale(0.996264009963)" xlink:href="#CMR17-61"/>
      <use transform="translate(725.072588511 1.79267018699)scale(0.996264009963)" xlink:href="#CMMI12-80"/>
      <use transform="translate(801.498409285 1.79267018699)scale(0.996264009963)" xlink:href="#CMMI12-98"/>
     </g>
    </g>
    <g id="line2d_63">
     <path d="
M72.9 204.304
L89.7 204.304" style="fill:none;stroke:#00bfbf;"/>
    </g>
    <g id="line2d_64"/>
    <g id="text_23">
     <!-- $\|E_m\|/\|A\|$ -->
     <g transform="translate(102.9 209.7)scale(0.12 -0.12)">
      <use transform="translate(0.0 24.9066002491)scale(0.996264009963)" xlink:href="#CMSY10-107"/>
      <use transform="translate(49.8133829195 24.9066002491)scale(0.996264009963)" xlink:href="#CMMI12-69"/>
      <use transform="translate(122.02460074 9.96268570497)scale(0.697381766617)" xlink:href="#CMMI12-109"/>
      <use transform="translate(182.251523827 24.9066002491)scale(0.996264009963)" xlink:href="#CMSY10-107"/>
      <use transform="translate(232.064906746 24.9066002491)scale(0.996264009963)" xlink:href="#CMMI12-61"/>
      <use transform="translate(280.839825508 24.9066002491)scale(0.996264009963)" xlink:href="#CMSY10-107"/>
      <use transform="translate(330.653208427 24.9066002491)scale(0.996264009963)" xlink:href="#CMMI12-65"/>
      <use transform="translate(403.781093726 24.9066002491)scale(0.996264009963)" xlink:href="#CMSY10-107"/>
     </g>
    </g>
   </g>
  </g>
 </g>
 <defs>
  <clipPath id="p2045afec6a">
   <rect height="195.3" width="362.7" x="58.5" y="25.2"/>
  </clipPath>
 </defs>
</svg>
